<?xml version="1.0" standalone="no"?>
<!DOCTYPE svg PUBLIC "-//W3C//DTD SVG 20010904//EN"
 "http://www.w3.org/TR/2001/REC-SVG-20010904/DTD/svg10.dtd">
<svg version="1.0" xmlns="http://www.w3.org/2000/svg"
 width="1280.000000pt" height="1280.000000pt" viewBox="0 0 1280.000000 1280.000000"
 preserveAspectRatio="xMidYMid meet">

<g transform="translate(0.000000,1280.000000) scale(0.100000,-0.100000)"
fill="#000000" stroke="none">
<path d="M3092 12620 c-196 -25 -401 -102 -575 -216 -93 -61 -280 -248 -344
-344 -101 -151 -167 -307 -204 -483 -31 -144 -31 -370 0 -514 37 -176 103
-332 204 -483 64 -96 251 -283 343 -343 155 -102 343 -178 514 -208 97 -17
344 -17 440 0 760 135 1241 883 1045 1627 -127 482 -520 849 -1019 949 -97 19
-306 27 -404 15z"/>
<path d="M10896 10738 c-7 -41 -206 -2909 -206 -2960 0 -30 4 -38 18 -38 9 0
133 -7 274 -17 142 -9 259 -15 261 -12 3 4 216 3012 213 3016 -1 0 -107 8
-236 17 -129 9 -254 19 -277 22 -41 5 -42 4 -47 -28z"/>
<path d="M2427 9890 c-541 -50 -967 -369 -1116 -835 -41 -129 -59 -250 -71
-493 -21 -432 -61 -721 -225 -1642 -149 -839 -212 -1409 -185 -1689 33 -347
181 -619 445 -816 123 -92 322 -174 506 -210 108 -21 313 -30 409 -17 69 8 86
6 205 -24 886 -221 1603 -690 2085 -1364 343 -479 564 -1060 670 -1760 35
-231 77 -347 175 -485 174 -246 528 -405 847 -381 337 26 585 209 658 488 l19
73 0 -262 1 -263 2625 0 2625 0 0 2800 0 2800 350 0 350 0 0 580 0 580 -1282
2 -1283 3 -6 80 c-4 44 -11 91 -17 105 -20 51 -79 83 -174 95 l-58 7 0 49 0
49 -680 0 -680 0 0 -95 c0 -89 -1 -95 -21 -95 -41 0 -59 18 -59 61 0 84 -55
149 -127 149 -19 0 -36 7 -41 17 -8 13 -27 16 -98 17 -137 2 -184 38 -194 146
l-5 55 -80 24 c-71 22 -99 25 -250 25 -148 1 -180 -2 -250 -22 -251 -72 -431
-236 -452 -411 l-6 -51 707 0 c679 0 706 1 706 18 0 18 -20 88 -35 125 -10 24
16 22 48 -3 19 -15 28 -33 32 -68 12 -89 13 -93 58 -110 38 -16 103 -17 734
-14 l692 3 3 42 3 41 50 -3 c114 -7 147 -42 153 -167 l5 -84 -2322 0 -2321 0
0 -575 0 -575 650 0 650 0 -1 -2417 c-1 -2406 -1 -2417 -20 -2303 -38 229 -81
458 -114 602 -321 1389 -999 2487 -1990 3223 -135 101 -334 232 -480 315 -216
125 -634 316 -857 393 -14 5 -18 18 -18 57 0 78 28 333 66 595 31 219 57 375
155 939 l33 188 46 -6 c25 -3 135 -19 246 -35 545 -82 997 -130 1544 -163 268
-16 1104 -15 1220 1 211 30 362 123 471 289 174 265 151 649 -52 867 -72 77
-135 118 -231 153 l-73 26 -615 1 c-606 1 -770 8 -1190 46 -299 27 -884 103
-1152 149 l-68 12 0 40 c0 135 -55 360 -121 490 -75 149 -217 312 -354 405
-233 158 -569 240 -868 213z"/>
<path d="M323 9400 c-63 -15 -104 -55 -123 -119 -5 -19 -5 -154 0 -334 33
-1110 41 -2092 21 -2467 -21 -377 -56 -710 -167 -1595 -25 -198 -48 -423 -51
-500 -18 -434 112 -734 373 -857 166 -78 366 -78 620 1 122 38 276 69 389 77
l85 7 0 -1327 0 -1326 -352 0 c-349 0 -354 0 -403 -24 -91 -42 -147 -127 -149
-226 -1 -76 26 -140 80 -190 82 -75 -4 -70 1172 -70 l1058 0 53 26 c123 62
175 219 112 343 -26 51 -100 114 -149 129 -27 8 -155 12 -411 12 l-371 0 0
1314 0 1313 108 -19 c407 -73 906 -233 1290 -414 93 -44 125 -54 167 -54 130
0 205 142 135 256 -20 31 -44 47 -154 100 -704 336 -1557 531 -2167 494 -250
-15 -354 -34 -669 -121 -267 -73 -416 18 -467 283 -27 145 -14 340 66 983 145
1171 157 1360 148 2370 -6 649 -31 1750 -42 1809 -15 84 -116 147 -202 126z"/>
<path d="M11310 7780 c0 -511 -1 -531 -19 -549 -34 -34 -89 -41 -313 -41
l-218 0 0 -86 0 -86 248 4 c282 5 309 10 393 86 76 68 74 52 71 665 l-3 537
-80 0 -79 0 0 -530z"/>
<path d="M8090 7581 c0 -31 148 -126 167 -107 4 3 4 7 2 9 -2 2 -24 19 -49 39
-41 32 -101 68 -115 68 -3 0 -5 -4 -5 -9z"/>
</g>
</svg>
